<svg xmlns="http://www.w3.org/2000/svg" viewBox="0 0 420 240">
<defs><radialGradient id="b" cx="50%" cy="42%" r="75%"><stop offset="0" stop-color="#0C1330"/><stop offset=".55" stop-color="#0A1128"/><stop offset="1" stop-color="#070D22"/></radialGradient><radialGradient id="l"><stop offset="0" stop-color="#991761" stop-opacity=".5"/><stop offset=".6" stop-color="#991761" stop-opacity=".12"/><stop offset="1" stop-color="#991761" stop-opacity="0"/></radialGradient><linearGradient id="w" x1="0" y1="0" x2="1" y2="1"><stop offset="0" stop-color="#F50C90"/><stop offset="1" stop-color="#6317E6"/></linearGradient></defs>
<rect width="420" height="240" fill="url(#b)"/>
<circle cx="294" cy="58" r="150" fill="url(#l)"/>
<ellipse cx="240" cy="158" rx="157" ry="36" transform="rotate(16 240 158)" fill="none" stroke="url(#w)" opacity="0.2"/>
<ellipse cx="184" cy="89" rx="135" ry="43" transform="rotate(25 184 89)" fill="none" stroke="url(#w)" opacity="0.2"/>
<circle cx="217" cy="116" r="46" fill="none" stroke="#C9A86A" opacity=".5"/><circle cx="217" cy="116" r="53" fill="none" stroke="#C9A86A" stroke-width=".6" opacity=".25"/>
<path d="M244 92L352 187L86 37L354 169L172 193" fill="none" stroke="#F4F8FF" stroke-width=".7" opacity=".3"/>
<circle cx="244" cy="92" r="2.8" fill="#FCE9C8"/><circle cx="352" cy="187" r="2.2" fill="#F50C90"/><circle cx="86" cy="37" r="2.8" fill="#F50C90"/><circle cx="354" cy="169" r="1.6" fill="#FCE9C8"/><circle cx="172" cy="193" r="2.2" fill="#F50C90"/>
<path d="M233 133L246 146L233 159L220 146Z" fill="none" stroke="#C9A86A" opacity=".7"/>
<circle cx="187" cy="193" r="0.9" fill="#F4F8FF" opacity="0.45"/><circle cx="10" cy="194" r="0.9" fill="#F4F8FF" opacity="0.45"/><circle cx="349" cy="171" r="0.9" fill="#F4F8FF" opacity="0.45"/><circle cx="236" cy="229" r="0.9" fill="#F4F8FF" opacity="0.45"/><circle cx="107" cy="134" r="0.6" fill="#F4F8FF" opacity="0.45"/><circle cx="405" cy="159" r="0.9" fill="#F4F8FF" opacity="0.45"/><circle cx="331" cy="185" r="0.9" fill="#F4F8FF" opacity="0.25"/><circle cx="317" cy="179" r="0.6" fill="#F4F8FF" opacity="0.25"/><circle cx="259" cy="113" r="0.9" fill="#F4F8FF" opacity="0.25"/><circle cx="89" cy="29" r="0.6" fill="#F4F8FF" opacity="0.45"/><circle cx="146" cy="47" r="0.9" fill="#F4F8FF" opacity="0.45"/><circle cx="85" cy="109" r="0.6" fill="#F4F8FF" opacity="0.45"/>
<text x="394" y="220" text-anchor="end" font-family="Arial" font-size="84" font-weight="700" fill="#F4F8FF" opacity=".06">12</text>
<path d="M24 214H88" stroke="url(#w)" stroke-width="2"/><path d="M94 214H118" stroke="#C9A86A" stroke-width="2" opacity=".7"/>
</svg>