<svg xmlns="http://www.w3.org/2000/svg" viewBox="0 0 420 240">
<defs><radialGradient id="b" cx="50%" cy="42%" r="75%"><stop offset="0" stop-color="#0C1330"/><stop offset=".55" stop-color="#0A1128"/><stop offset="1" stop-color="#070D22"/></radialGradient><radialGradient id="l"><stop offset="0" stop-color="#179961" stop-opacity=".5"/><stop offset=".6" stop-color="#179961" stop-opacity=".12"/><stop offset="1" stop-color="#179961" stop-opacity="0"/></radialGradient><linearGradient id="w" x1="0" y1="0" x2="1" y2="1"><stop offset="0" stop-color="#0CF590"/><stop offset="1" stop-color="#17CDE6"/></linearGradient></defs>
<rect width="420" height="240" fill="url(#b)"/>
<circle cx="95" cy="144" r="150" fill="url(#l)"/>
<ellipse cx="259" cy="121" rx="139" ry="42" transform="rotate(-16 259 121)" fill="none" stroke="url(#w)" opacity="0.28"/>
<ellipse cx="249" cy="117" rx="131" ry="36" transform="rotate(-24 249 117)" fill="none" stroke="url(#w)" opacity="0.28"/>
<circle cx="202" cy="145" r="48" fill="none" stroke="#C9A86A" opacity=".5"/><circle cx="202" cy="145" r="55" fill="none" stroke="#C9A86A" stroke-width=".6" opacity=".25"/>
<path d="M331 129L52 200L98 157L175 182" fill="none" stroke="#F4F8FF" stroke-width=".7" opacity=".3"/>
<circle cx="331" cy="129" r="2.2" fill="#FCE9C8"/><circle cx="52" cy="200" r="1.6" fill="#0CF590"/><circle cx="98" cy="157" r="2.2" fill="#0CF590"/><circle cx="175" cy="182" r="1.6" fill="#FCE9C8"/>
<path d="M320 126l8 8-8 8" fill="none" stroke="url(#w)" stroke-width="1.4" opacity=".8"/><path d="M332 126l8 8-8 8" fill="none" stroke="url(#w)" stroke-width="1.4" opacity=".8"/><path d="M344 126l8 8-8 8" fill="none" stroke="url(#w)" stroke-width="1.4" opacity=".8"/>
<circle cx="175" cy="29" r="0.6" fill="#F4F8FF" opacity="0.45"/><circle cx="366" cy="48" r="0.9" fill="#F4F8FF" opacity="0.25"/><circle cx="179" cy="48" r="0.9" fill="#F4F8FF" opacity="0.45"/><circle cx="250" cy="56" r="0.6" fill="#F4F8FF" opacity="0.25"/><circle cx="274" cy="34" r="0.6" fill="#F4F8FF" opacity="0.25"/><circle cx="248" cy="225" r="0.6" fill="#F4F8FF" opacity="0.25"/><circle cx="347" cy="100" r="0.6" fill="#F4F8FF" opacity="0.25"/><circle cx="149" cy="91" r="0.6" fill="#F4F8FF" opacity="0.25"/><circle cx="108" cy="68" r="0.9" fill="#F4F8FF" opacity="0.25"/>
<text x="394" y="220" text-anchor="end" font-family="Arial" font-size="84" font-weight="700" fill="#F4F8FF" opacity=".06">07</text>
<path d="M24 214H88" stroke="url(#w)" stroke-width="2"/><path d="M94 214H118" stroke="#C9A86A" stroke-width="2" opacity=".7"/>
</svg>