<svg xmlns="http://www.w3.org/2000/svg" viewBox="0 0 420 240">
<defs><radialGradient id="b" cx="50%" cy="42%" r="75%"><stop offset="0" stop-color="#0C1330"/><stop offset=".55" stop-color="#0A1128"/><stop offset="1" stop-color="#070D22"/></radialGradient><radialGradient id="l"><stop offset="0" stop-color="#179961" stop-opacity=".5"/><stop offset=".6" stop-color="#179961" stop-opacity=".12"/><stop offset="1" stop-color="#179961" stop-opacity="0"/></radialGradient><linearGradient id="w" x1="0" y1="0" x2="1" y2="1"><stop offset="0" stop-color="#0CF590"/><stop offset="1" stop-color="#17CDE6"/></linearGradient></defs>
<rect width="420" height="240" fill="url(#b)"/>
<circle cx="128" cy="119" r="150" fill="url(#l)"/>
<ellipse cx="260" cy="158" rx="166" ry="34" transform="rotate(-14 260 158)" fill="none" stroke="url(#w)" opacity="0.2"/>
<ellipse cx="190" cy="121" rx="152" ry="34" transform="rotate(0 190 121)" fill="none" stroke="url(#w)" opacity="0.2"/>
<circle cx="170" cy="74" r="43" fill="none" stroke="#C9A86A" opacity=".5"/><circle cx="170" cy="74" r="50" fill="none" stroke="#C9A86A" stroke-width=".6" opacity=".25"/>
<path d="M330 99L140 168L325 48L307 179" fill="none" stroke="#F4F8FF" stroke-width=".7" opacity=".3"/>
<circle cx="330" cy="99" r="1.6" fill="#FCE9C8"/><circle cx="140" cy="168" r="1.6" fill="#0CF590"/><circle cx="325" cy="48" r="2.2" fill="#0CF590"/><circle cx="307" cy="179" r="1.6" fill="#FCE9C8"/>
<circle cx="296" cy="162" r="11" fill="none" stroke="#0CF590"/><path d="M283 162h26M296 149v26" stroke="#0CF590" stroke-width=".8" opacity=".5"/>
<circle cx="208" cy="180" r="0.9" fill="#F4F8FF" opacity="0.45"/><circle cx="117" cy="69" r="0.6" fill="#F4F8FF" opacity="0.45"/><circle cx="190" cy="156" r="0.9" fill="#F4F8FF" opacity="0.25"/><circle cx="30" cy="113" r="0.6" fill="#F4F8FF" opacity="0.25"/><circle cx="181" cy="160" r="0.6" fill="#F4F8FF" opacity="0.25"/><circle cx="354" cy="190" r="0.6" fill="#F4F8FF" opacity="0.25"/><circle cx="374" cy="9" r="0.6" fill="#F4F8FF" opacity="0.45"/><circle cx="274" cy="133" r="0.6" fill="#F4F8FF" opacity="0.45"/><circle cx="401" cy="40" r="0.6" fill="#F4F8FF" opacity="0.45"/>
<text x="394" y="220" text-anchor="end" font-family="Arial" font-size="84" font-weight="700" fill="#F4F8FF" opacity=".06">02</text>
<path d="M24 214H88" stroke="url(#w)" stroke-width="2"/><path d="M94 214H118" stroke="#C9A86A" stroke-width="2" opacity=".7"/>
</svg>