<svg xmlns="http://www.w3.org/2000/svg" viewBox="0 0 420 240">
<defs><radialGradient id="b" cx="50%" cy="42%" r="75%"><stop offset="0" stop-color="#0C1330"/><stop offset=".55" stop-color="#0A1128"/><stop offset="1" stop-color="#070D22"/></radialGradient><radialGradient id="l"><stop offset="0" stop-color="#991761" stop-opacity=".5"/><stop offset=".6" stop-color="#991761" stop-opacity=".12"/><stop offset="1" stop-color="#991761" stop-opacity="0"/></radialGradient><linearGradient id="w" x1="0" y1="0" x2="1" y2="1"><stop offset="0" stop-color="#F50C90"/><stop offset="1" stop-color="#6317E6"/></linearGradient></defs>
<rect width="420" height="240" fill="url(#b)"/>
<circle cx="309" cy="148" r="150" fill="url(#l)"/>
<ellipse cx="213" cy="127" rx="175" ry="35" transform="rotate(22 213 127)" fill="none" stroke="url(#w)" opacity="0.2"/>
<ellipse cx="229" cy="97" rx="183" ry="52" transform="rotate(-13 229 97)" fill="none" stroke="url(#w)" opacity="0.2"/>
<circle cx="227" cy="70" r="38" fill="none" stroke="#C9A86A" opacity=".5"/><circle cx="227" cy="70" r="45" fill="none" stroke="#C9A86A" stroke-width=".6" opacity=".25"/>
<path d="M365 168L213 34L209 116L169 63L207 191" fill="none" stroke="#F4F8FF" stroke-width=".7" opacity=".3"/>
<circle cx="365" cy="168" r="2.2" fill="#FCE9C8"/><circle cx="213" cy="34" r="2.8" fill="#F50C90"/><circle cx="209" cy="116" r="2.8" fill="#F50C90"/><circle cx="169" cy="63" r="2.8" fill="#FCE9C8"/><circle cx="207" cy="191" r="2.2" fill="#F50C90"/>
<polygon points="249 130 249 144 238 150 227 144 227 130 238 124" fill="none" stroke="url(#w)" opacity=".8"/>
<circle cx="248" cy="26" r="0.9" fill="#F4F8FF" opacity="0.45"/><circle cx="101" cy="72" r="0.6" fill="#F4F8FF" opacity="0.45"/><circle cx="213" cy="129" r="0.9" fill="#F4F8FF" opacity="0.25"/><circle cx="334" cy="116" r="0.6" fill="#F4F8FF" opacity="0.45"/><circle cx="69" cy="228" r="0.6" fill="#F4F8FF" opacity="0.25"/><circle cx="189" cy="198" r="0.6" fill="#F4F8FF" opacity="0.45"/><circle cx="294" cy="48" r="0.9" fill="#F4F8FF" opacity="0.45"/><circle cx="390" cy="67" r="0.9" fill="#F4F8FF" opacity="0.25"/><circle cx="134" cy="101" r="0.6" fill="#F4F8FF" opacity="0.25"/><circle cx="189" cy="229" r="0.9" fill="#F4F8FF" opacity="0.45"/><circle cx="257" cy="81" r="0.6" fill="#F4F8FF" opacity="0.45"/>
<text x="394" y="220" text-anchor="end" font-family="Arial" font-size="84" font-weight="700" fill="#F4F8FF" opacity=".06">16</text>
<path d="M24 214H88" stroke="url(#w)" stroke-width="2"/><path d="M94 214H118" stroke="#C9A86A" stroke-width="2" opacity=".7"/>
</svg>