<svg xmlns="http://www.w3.org/2000/svg" viewBox="0 0 420 240">
<defs><radialGradient id="b" cx="50%" cy="42%" r="75%"><stop offset="0" stop-color="#0C1330"/><stop offset=".55" stop-color="#0A1128"/><stop offset="1" stop-color="#070D22"/></radialGradient><radialGradient id="l"><stop offset="0" stop-color="#996317" stop-opacity=".5"/><stop offset=".6" stop-color="#996317" stop-opacity=".12"/><stop offset="1" stop-color="#996317" stop-opacity="0"/></radialGradient><linearGradient id="w" x1="0" y1="0" x2="1" y2="1"><stop offset="0" stop-color="#F5940C"/><stop offset="1" stop-color="#E65C17"/></linearGradient></defs>
<rect width="420" height="240" fill="url(#b)"/>
<circle cx="148" cy="69" r="150" fill="url(#l)"/>
<ellipse cx="153" cy="109" rx="132" ry="49" transform="rotate(1 153 109)" fill="none" stroke="url(#w)" opacity="0.28"/>
<ellipse cx="178" cy="80" rx="131" ry="49" transform="rotate(12 178 80)" fill="none" stroke="url(#w)" opacity="0.2"/>
<circle cx="150" cy="73" r="45" fill="none" stroke="#C9A86A" opacity=".5"/><circle cx="150" cy="73" r="52" fill="none" stroke="#C9A86A" stroke-width=".6" opacity=".25"/>
<path d="M390 86L361 159L206 105L49 83L299 198" fill="none" stroke="#F4F8FF" stroke-width=".7" opacity=".3"/>
<circle cx="390" cy="86" r="1.6" fill="#FCE9C8"/><circle cx="361" cy="159" r="2.8" fill="#F5940C"/><circle cx="206" cy="105" r="2.2" fill="#F5940C"/><circle cx="49" cy="83" r="2.2" fill="#FCE9C8"/><circle cx="299" cy="198" r="1.6" fill="#F5940C"/>
<path d="M217 109L228 120L217 131L206 120Z" fill="none" stroke="#C9A86A" opacity=".7"/>
<circle cx="152" cy="30" r="0.6" fill="#F4F8FF" opacity="0.25"/><circle cx="296" cy="28" r="0.9" fill="#F4F8FF" opacity="0.25"/><circle cx="75" cy="137" r="0.9" fill="#F4F8FF" opacity="0.45"/><circle cx="167" cy="186" r="0.9" fill="#F4F8FF" opacity="0.25"/><circle cx="327" cy="60" r="0.9" fill="#F4F8FF" opacity="0.45"/><circle cx="315" cy="161" r="0.6" fill="#F4F8FF" opacity="0.25"/><circle cx="241" cy="44" r="0.6" fill="#F4F8FF" opacity="0.25"/><circle cx="258" cy="45" r="0.6" fill="#F4F8FF" opacity="0.25"/><circle cx="402" cy="178" r="0.9" fill="#F4F8FF" opacity="0.25"/>
<text x="394" y="220" text-anchor="end" font-family="Arial" font-size="84" font-weight="700" fill="#F4F8FF" opacity=".06">24</text>
<path d="M24 214H88" stroke="url(#w)" stroke-width="2"/><path d="M94 214H118" stroke="#C9A86A" stroke-width="2" opacity=".7"/>
</svg>