<svg xmlns="http://www.w3.org/2000/svg" viewBox="0 0 420 240">
<defs><radialGradient id="b" cx="50%" cy="42%" r="75%"><stop offset="0" stop-color="#0C1330"/><stop offset=".55" stop-color="#0A1128"/><stop offset="1" stop-color="#070D22"/></radialGradient><radialGradient id="l"><stop offset="0" stop-color="#996317" stop-opacity=".5"/><stop offset=".6" stop-color="#996317" stop-opacity=".12"/><stop offset="1" stop-color="#996317" stop-opacity="0"/></radialGradient><linearGradient id="w" x1="0" y1="0" x2="1" y2="1"><stop offset="0" stop-color="#F5940C"/><stop offset="1" stop-color="#E65C17"/></linearGradient></defs>
<rect width="420" height="240" fill="url(#b)"/>
<circle cx="187" cy="126" r="150" fill="url(#l)"/>
<ellipse cx="268" cy="154" rx="180" ry="42" transform="rotate(-2 268 154)" fill="none" stroke="url(#w)" opacity="0.2"/>
<ellipse cx="231" cy="99" rx="130" ry="44" transform="rotate(16 231 99)" fill="none" stroke="url(#w)" opacity="0.28"/>
<circle cx="186" cy="150" r="46" fill="none" stroke="#C9A86A" opacity=".5"/><circle cx="186" cy="150" r="53" fill="none" stroke="#C9A86A" stroke-width=".6" opacity=".25"/>
<path d="M110 120L272 156L309 188L279 183L90 176" fill="none" stroke="#F4F8FF" stroke-width=".7" opacity=".3"/>
<circle cx="110" cy="120" r="2.8" fill="#FCE9C8"/><circle cx="272" cy="156" r="2.2" fill="#F5940C"/><circle cx="309" cy="188" r="1.6" fill="#F5940C"/><circle cx="279" cy="183" r="2.2" fill="#FCE9C8"/><circle cx="90" cy="176" r="2.2" fill="#F5940C"/>
<path d="M208 154L218 164L208 174L198 164Z" fill="none" stroke="#C9A86A" opacity=".7"/>
<circle cx="95" cy="26" r="0.9" fill="#F4F8FF" opacity="0.45"/><circle cx="38" cy="75" r="0.6" fill="#F4F8FF" opacity="0.45"/><circle cx="265" cy="175" r="0.9" fill="#F4F8FF" opacity="0.25"/><circle cx="68" cy="216" r="0.9" fill="#F4F8FF" opacity="0.25"/><circle cx="199" cy="32" r="0.9" fill="#F4F8FF" opacity="0.25"/><circle cx="269" cy="112" r="0.9" fill="#F4F8FF" opacity="0.45"/><circle cx="351" cy="155" r="0.6" fill="#F4F8FF" opacity="0.25"/><circle cx="109" cy="161" r="0.6" fill="#F4F8FF" opacity="0.25"/><circle cx="192" cy="162" r="0.6" fill="#F4F8FF" opacity="0.25"/><circle cx="91" cy="88" r="0.9" fill="#F4F8FF" opacity="0.25"/><circle cx="188" cy="84" r="0.6" fill="#F4F8FF" opacity="0.25"/>
<text x="394" y="220" text-anchor="end" font-family="Arial" font-size="84" font-weight="700" fill="#F4F8FF" opacity=".06">30</text>
<path d="M24 214H88" stroke="url(#w)" stroke-width="2"/><path d="M94 214H118" stroke="#C9A86A" stroke-width="2" opacity=".7"/>
</svg>