<svg xmlns="http://www.w3.org/2000/svg" viewBox="0 0 420 240">
<defs><radialGradient id="b" cx="50%" cy="42%" r="75%"><stop offset="0" stop-color="#0C1330"/><stop offset=".55" stop-color="#0A1128"/><stop offset="1" stop-color="#070D22"/></radialGradient><radialGradient id="l"><stop offset="0" stop-color="#996317" stop-opacity=".5"/><stop offset=".6" stop-color="#996317" stop-opacity=".12"/><stop offset="1" stop-color="#996317" stop-opacity="0"/></radialGradient><linearGradient id="w" x1="0" y1="0" x2="1" y2="1"><stop offset="0" stop-color="#F5940C"/><stop offset="1" stop-color="#E65C17"/></linearGradient></defs>
<rect width="420" height="240" fill="url(#b)"/>
<circle cx="162" cy="97" r="150" fill="url(#l)"/>
<ellipse cx="155" cy="92" rx="103" ry="42" transform="rotate(-18 155 92)" fill="none" stroke="url(#w)" opacity="0.28"/>
<ellipse cx="181" cy="107" rx="105" ry="28" transform="rotate(-23 181 107)" fill="none" stroke="url(#w)" opacity="0.2"/>
<circle cx="251" cy="104" r="40" fill="none" stroke="#C9A86A" opacity=".5"/><circle cx="251" cy="104" r="47" fill="none" stroke="#C9A86A" stroke-width=".6" opacity=".25"/>
<path d="M142 65L372 31L124 142L125 25L130 118" fill="none" stroke="#F4F8FF" stroke-width=".7" opacity=".3"/>
<circle cx="142" cy="65" r="2.2" fill="#FCE9C8"/><circle cx="372" cy="31" r="1.6" fill="#F5940C"/><circle cx="124" cy="142" r="2.8" fill="#F5940C"/><circle cx="125" cy="25" r="1.6" fill="#FCE9C8"/><circle cx="130" cy="118" r="1.6" fill="#F5940C"/>
<path d="M292 130l4 0" stroke="#C9A86A" opacity=".65"/><path d="M289 136l3 3" stroke="#C9A86A" opacity=".65"/><path d="M283 139l0 4" stroke="#C9A86A" opacity=".65"/><path d="M277 136l-3 3" stroke="#C9A86A" opacity=".65"/><path d="M274 130l-4 0" stroke="#C9A86A" opacity=".65"/><path d="M277 124l-3 -3" stroke="#C9A86A" opacity=".65"/><path d="M283 121l-0 -4" stroke="#C9A86A" opacity=".65"/><path d="M289 124l3 -3" stroke="#C9A86A" opacity=".65"/>
<circle cx="155" cy="10" r="0.9" fill="#F4F8FF" opacity="0.45"/><circle cx="286" cy="200" r="0.9" fill="#F4F8FF" opacity="0.45"/><circle cx="8" cy="181" r="0.6" fill="#F4F8FF" opacity="0.25"/><circle cx="292" cy="215" r="0.9" fill="#F4F8FF" opacity="0.25"/><circle cx="70" cy="222" r="0.9" fill="#F4F8FF" opacity="0.25"/><circle cx="187" cy="68" r="0.6" fill="#F4F8FF" opacity="0.25"/><circle cx="261" cy="128" r="0.6" fill="#F4F8FF" opacity="0.45"/><circle cx="301" cy="88" r="0.9" fill="#F4F8FF" opacity="0.25"/><circle cx="258" cy="162" r="0.6" fill="#F4F8FF" opacity="0.25"/><circle cx="63" cy="81" r="0.6" fill="#F4F8FF" opacity="0.25"/><circle cx="163" cy="13" r="0.9" fill="#F4F8FF" opacity="0.25"/>
<text x="394" y="220" text-anchor="end" font-family="Arial" font-size="84" font-weight="700" fill="#F4F8FF" opacity=".06">29</text>
<path d="M24 214H88" stroke="url(#w)" stroke-width="2"/><path d="M94 214H118" stroke="#C9A86A" stroke-width="2" opacity=".7"/>
</svg>